HIERARCHY
ROOT hip
{
  OFFSET 0 0 0
  CHANNELS 6 Xposition Yposition Zposition Zrotation Yrotation Xrotation
  JOINT abdomen
  {
    OFFSET 0 20.6881 -0.73152
    CHANNELS 3 Zrotation Xrotation Yrotation
    JOINT chest
    {
      OFFSET 0 11.7043 -0.48768
      CHANNELS 3 Zrotation Xrotation Yrotation
      JOINT neck
      {
        OFFSET 0 22.1894 -2.19456
        CHANNELS 3 Zrotation Xrotation Yrotation
        JOINT head
        {
          OFFSET -0.24384 7.07133 1.2192
          CHANNELS 3 Zrotation Xrotation Yrotation
          JOINT leftEye
          {
            OFFSET 4.14528 8.04674 8.04672
            CHANNELS 3 Zrotation Xrotation Yrotation
            End Site
            {
              OFFSET 1 0 0
            }
          }
          JOINT rightEye
          {
            OFFSET -3.6576 8.04674 8.04672
            CHANNELS 3 Zrotation Xrotation Yrotation
            End Site
            {
              OFFSET 1 0 0
            }
          }
        }
      }
      JOINT rCollar
      {
        OFFSET -2.68224 19.2634 -4.8768
        CHANNELS 3 Zrotation Xrotation Yrotation
        JOINT rShldr
        {
          OFFSET -8.77824 -1.95073 1.46304
          CHANNELS 3 Zrotation Xrotation Yrotation
          JOINT rForeArm
          {
            OFFSET -28.1742 -1.7115 0.48768
            CHANNELS 3 Zrotation Xrotation Yrotation
            JOINT rHand
            {
              OFFSET -22.5879 0.773209 7.07136
              CHANNELS 3 Zrotation Xrotation Yrotation
              JOINT rThumb1
              {
                OFFSET -1.2192 -0.487915 3.41376
                CHANNELS 3 Zrotation Xrotation Yrotation
                JOINT rThumb2
                {
                  OFFSET -3.37035 -0.52449 3.41376
                  CHANNELS 3 Zrotation Xrotation Yrotation
                  End Site
                  {
                    OFFSET -1.78271 -1.18214 1.43049
                  }
                }
              }
              JOINT rIndex1
              {
                OFFSET -7.75947 0.938293 5.60832
                CHANNELS 3 Zrotation Xrotation Yrotation
                JOINT rIndex2
                {
                  OFFSET -2.54057 -0.884171 1.56538
                  CHANNELS 3 Zrotation Xrotation Yrotation
                  End Site
                  {
                    OFFSET -1.62519 -0.234802 1.16502
                  }
                }
              }
              JOINT rMid1
              {
                OFFSET -8.24714 1.18213 3.41376
                CHANNELS 3 Zrotation Xrotation Yrotation
                JOINT rMid2
                {
                  OFFSET -3.10165 -0.590103 1.0647
                  CHANNELS 3 Zrotation Xrotation Yrotation
                  End Site
                  {
                    OFFSET -2.48547 -0.328903 0.83742
                  }
                }
              }
              JOINT rRing1
              {
                OFFSET -8.82822 0.546677 1.51678
                CHANNELS 3 Zrotation Xrotation Yrotation
                JOINT rRing2
                {
                  OFFSET -2.60934 -0.819778 -0.0198488
                  CHANNELS 3 Zrotation Xrotation Yrotation
                  End Site
                  {
                    OFFSET -2.33842 -0.294052 0.168128
                  }
                }
              }
              JOINT rPinky1
              {
                OFFSET -8.27202 -0.0477905 -0.4584
                CHANNELS 3 Zrotation Xrotation Yrotation
                JOINT rPinky2
                {
                  OFFSET -1.82734 -0.647385 -0.700984
                  CHANNELS 3 Zrotation Xrotation Yrotation
                  End Site
                  {
                    OFFSET -1.69225 -0.51767 -0.607171
                  }
                }
              }
            }
          }
        }
      }
      JOINT lCollar
      {
        OFFSET 2.68224 19.2634 -4.8768
        CHANNELS 3 Zrotation Xrotation Yrotation
        JOINT lShldr
        {
          OFFSET 8.77824 -1.95073 1.46304
          CHANNELS 3 Zrotation Xrotation Yrotation
          JOINT lForeArm
          {
            OFFSET 28.1742 -1.7115 0.48768
            CHANNELS 3 Zrotation Xrotation Yrotation
            JOINT lHand
            {
              OFFSET 22.5879 0.773209 7.07136
              CHANNELS 3 Zrotation Xrotation Yrotation
              JOINT lThumb1
              {
                OFFSET 1.2192 -0.487915 3.41376
                CHANNELS 3 Zrotation Xrotation Yrotation
                JOINT lThumb2
                {
                  OFFSET 3.37035 -0.52449 3.41376
                  CHANNELS 3 Zrotation Xrotation Yrotation
                  End Site
                  {
                    OFFSET 1.78271 -1.18214 1.43049
                  }
                }
              }
              JOINT lIndex1
              {
                OFFSET 7.75947 0.938293 5.60832
                CHANNELS 3 Zrotation Xrotation Yrotation
                JOINT lIndex2
                {
                  OFFSET 2.54057 -0.884171 1.56538
                  CHANNELS 3 Zrotation Xrotation Yrotation
                  End Site
                  {
                    OFFSET 1.62519 -0.234802 1.16502
                  }
                }
              }
              JOINT lMid1
              {
                OFFSET 8.24714 1.18213 3.41376
                CHANNELS 3 Zrotation Xrotation Yrotation
                JOINT lMid2
                {
                  OFFSET 3.10165 -0.590103 1.0647
                  CHANNELS 3 Zrotation Xrotation Yrotation
                  End Site
                  {
                    OFFSET 2.48547 -0.328903 0.83742
                  }
                }
              }
              JOINT lRing1
              {
                OFFSET 8.82822 0.546677 1.51678
                CHANNELS 3 Zrotation Xrotation Yrotation
                JOINT lRing2
                {
                  OFFSET 2.60934 -0.819778 -0.0198488
                  CHANNELS 3 Zrotation Xrotation Yrotation
                  End Site
                  {
                    OFFSET 2.33842 -0.294052 0.168128
                  }
                }
              }
              JOINT lPinky1
              {
                OFFSET 8.27202 -0.0477905 -0.4584
                CHANNELS 3 Zrotation Xrotation Yrotation
                JOINT lPinky2
                {
                  OFFSET 1.82734 -0.647385 -0.700984
                  CHANNELS 3 Zrotation Xrotation Yrotation
                  End Site
                  {
                    OFFSET 1.69225 -0.51767 -0.607171
                  }
                }
              }
            }
          }
        }
      }
    }
  }
  JOINT rButtock
  {
    OFFSET -8.77824 4.35084 1.2192
    CHANNELS 3 Zrotation Xrotation Yrotation
    JOINT rThigh
    {
      OFFSET 0 -1.70687 -2.19456
      CHANNELS 3 Zrotation Xrotation Yrotation
      JOINT rShin
      {
        OFFSET 0 -36.8199 0.73152
        CHANNELS 3 Zrotation Xrotation Yrotation
        JOINT rFoot
        {
          OFFSET 0.73152 -45.1104 -5.12064
          CHANNELS 3 Zrotation Xrotation Yrotation
          End Site
          {
            OFFSET -1.1221 -3.69964 12.103
          }
        }
      }
    }
  }
  JOINT lButtock
  {
    OFFSET 8.77824 4.35084 1.2192
    CHANNELS 3 Zrotation Xrotation Yrotation
    JOINT lThigh
    {
      OFFSET 0 -1.70687 -2.19456
      CHANNELS 3 Zrotation Xrotation Yrotation
      JOINT lShin
      {
        OFFSET 0 -36.8199 0.73152
        CHANNELS 3 Zrotation Xrotation Yrotation
        JOINT lFoot
        {
          OFFSET -0.73152 -45.1104 -5.12064
          CHANNELS 3 Zrotation Xrotation Yrotation
          End Site
          {
            OFFSET 1.1221 -3.69964 12.103
          }
        }
      }
    }
  }
}
MOTION
Frames:	4
Frame Time:	0.03333
0.14850000152364373 56.370800733566284 0.36855998914688826 -286.2239949055867 -263.49501047999524 435.65700458614674 7.776820091804314 25.986100150190076 -1.6841999983727918 3.1743500535572897 -12.73079983927052 0.5132720141795034 -10.708399609049964 11.307099840747432 -4.091919801090919 15.734199649412501 -23.438400316187593 -3.9310701267975876 -0.0 0.0 0.0 -0.0 0.0 0.0 1.3549200069565516e-14 -1.1329200225089492e-12 3.7316801372267696e-14 42.323598456158756 -0.09925800322570458 -8.463869674189544 -24.159400207616017 -19.412200168403714 50.09250150494138 -0.3631719904227148 -18.607400686048404 -2.6913199292276344 -5.615679780462415e-10 -3.757960132153772e-09 1.641150014684766e-09 -1.0043399527161433e-09 -6.522120172844102e-09 2.8290200983860774e-09 -5.615659901995656e-10 -3.757950192920392e-09 1.6411399760590525e-09 7.730910121524428 5.474879855648998 0.41731399283890674 -5.615700155890843e-10 -3.757960132153772e-09 1.6411399760590525e-09 2.90554006136521 0.9651829962377875 0.10290200252939893 -5.615579891166951e-10 -3.757960132153772e-09 1.6411399760590525e-09 10.278599710243157 0.7318009818271524 0.025912300303053633 -5.615690216657464e-10 -3.757950192920392e-09 1.6411399760590525e-09 2.221669932038622 -0.7334870246959406 -0.20891999872313852 1.4180299530824733e-14 -1.1218799996200229e-12 3.6241700146450994e-14 -71.83740252020121 74.47690180419596 -0.11252799356598153 28.407900814769008 -34.21219898654043 -73.98710210862518 3.8121501300453184 -47.292301530154575 8.735150273870463 -1.7113099697955034e-09 1.2812499764410747e-09 -1.1414800040024915e-09 -2.909570031110152e-09 2.3018699958636242e-09 -2.029530031646621e-09 -1.7113099697955034e-09 1.2812499764410747e-09 -1.1414800040024915e-09 -7.730910121524428 5.474879855648998 -0.41731399283890674 -1.7113099697955034e-09 1.2812499764410747e-09 -1.1414900426282048e-09 -2.90554006136521 0.9651829962377875 -0.10290200252939893 -1.7113099697955034e-09 1.2812600150667882e-09 -1.1414800040024915e-09 -10.278599710243157 0.7318009818271524 -0.025912300303053633 -1.7113099697955034e-09 1.2812600150667882e-09 -1.1414900426282048e-09 -2.221669932038622 -0.7334870246959406 0.20891999872313852 -2.0321699793705798e-16 0.0 -3.882510030490358e-19 -44.855300279577776 -50.048900992374605 -32.20169865340132 -14.500800673997013 85.98859825398382 14.845800359163528 -3.7997097942457865 -23.709700552662376 -5.00325017081774 2.0321699793705798e-16 0.0 3.882510030490358e-19 67.12780267236982 -49.029901655005816 54.11239909566863 172.2339979603818 80.7749987472972 -172.6000004772461 7.152989886603077 -26.14490034084558 9.585330386844985
0.2639999962411821 56.57950043678284 0.6621099775657058 -287.89700876164636 -263.4820057998155 433.75700988358926 7.483600070735667 25.510000106547047 0.3976309884765167 2.2749699535570516 -12.807700085362049 0.9512070418137663 -8.540120198536274 10.587099718258768 -0.34850898833729904 12.186000045408209 -23.382199812149437 2.708879918696914 -0.0 0.0 0.0 -0.0 0.0 0.0 -5.124689720344208e-14 -1.5401000334055457e-12 3.098169878027464e-14 44.13319902014569 1.2246100160575621 -7.4944301894383685 -25.47200034909968 -22.136999977395458 54.606098829255494 -1.0858200385143741 -27.668599431459537 -4.236169981267003 -5.542469872196821e-10 -2.7470599872301088e-09 9.156019801416423e-10 -9.72682003517195e-10 -4.761580186196233e-09 1.5740799684470702e-09 -5.542479811430201e-10 -2.7470599872301088e-09 9.155930348316007e-10 7.730910121524428 5.474879855648998 0.41731399283890674 -5.54249024762525e-10 -2.7470500479967294e-09 9.15589953669253e-10 2.90554006136521 0.9651829962377875 0.10290200252939893 -5.542399800601496e-10 -2.7470500479967294e-09 9.155950226782766e-10 10.278599710243157 0.7318009818271524 0.025912300303053633 -5.54249024762525e-10 -2.7470500479967294e-09 9.155940287549386e-10 2.221669932038622 -0.7334870246959406 -0.20891999872313852 -5.0568801135132353e-14 -1.5290600105166194e-12 2.990660058767125e-14 -48.397600307686474 76.78939895148717 -26.376500102769665 28.27240010691971 -32.64720115710999 -71.5100998551742 2.772590002284089 -41.79310107841845 7.228460061837133 -1.4604699588711907e-09 1.3027500291260992e-09 -1.056720010803497e-09 -2.4808300673408642e-09 2.3159600518871753e-09 -1.872760093827949e-09 -1.4604699588711907e-09 1.3027500291260992e-09 -1.0567099721777838e-09 -7.730910121524428 5.474879855648998 -0.41731399283890674 -1.4604699588711907e-09 1.3027399905003857e-09 -1.056720010803497e-09 -2.90554006136521 0.9651829962377875 -0.10290200252939893 -1.4604699588711907e-09 1.3027500291260992e-09 -1.056720010803497e-09 -10.278599710243157 0.7318009818271524 -0.025912300303053633 -1.4604600196378111e-09 1.3027500291260992e-09 -1.0567300494292104e-09 -2.221669932038622 -0.7334870246959406 0.20891999872313852 -2.0321699793705798e-16 0.0 -3.882510030490358e-19 -44.388398793199464 -49.804701238979135 -31.940700049742215 -15.10010025479415 86.1297987546955 15.436299241215103 -3.8730498042324446 -23.533799275872454 -5.124469806886188 2.0321699793705798e-16 0.0 3.882510030490358e-19 66.09720225869577 -49.08180084741416 52.81680100257642 171.79600524966557 81.3498001470888 -172.16900188023996 7.12091019561882 -25.78809979634058 9.656160302311664
0.309199996991083 56.760501861572266 0.9136299835518003 -289.19201262828074 -263.67601049300055 432.3060044963118 6.752030034679826 24.97879921932223 3.552659930975721 0.701930003265748 -12.93249959432923 1.5784000479641769 -5.28298014138879 11.128300002428483 3.171089918889078 8.148969778921629 -24.14320070645204 8.537050028504353 -0.0 0.0 0.0 -0.0 0.0 0.0 -1.355720047299629e-13 -2.0008899784688687e-12 -1.7871199935004525e-14 46.49030071781168 2.261569976179133 -6.7742401023134144 -26.531400255409093 -24.879500221621292 58.96270084040228 -1.524989996367087 -32.668699177522605 -5.170349895088456 -2.746749883148666e-10 1.5750000432810173e-09 -1.6589800054443828e-09 -4.269970198038456e-10 2.752829910991619e-09 -2.8714799070296125e-09 -2.7467399439152864e-10 1.5750000432810173e-09 -1.6589900440700961e-09 7.730910121524428 5.474879855648998 0.41731399283890674 -2.74677001009626e-10 1.5750000432810173e-09 -1.6589800054443828e-09 2.90554006136521 0.9651829962377875 0.10290200252939893 -2.746689999267554e-10 1.5750000432810173e-09 -1.6589800054443828e-09 10.278599710243157 0.7318009818271524 0.025912300303053633 -2.746800076277233e-10 1.5750000432810173e-09 -1.6589800054443828e-09 2.221669932038622 -0.7334870246959406 -0.20891999872313852 -1.353979953487009e-13 -1.9980000298883666e-12 -1.8375500463590704e-14 -14.700300254369331 76.82120031226276 -62.126697180951474 28.109899661281354 -31.298399305477968 -69.30659886665805 2.1577600654182243 -37.86650045665899 6.276549830703973 2.9528398872741223e-10 2.7393600631309533e-10 9.041969707434579e-11 5.026429844746056e-10 4.468349841869708e-10 1.689510025591334e-10 2.952749937212037e-10 2.739400068545306e-10 9.043220187234147e-11 -7.730910121524428 5.474879855648998 -0.41731399283890674 2.952810069573984e-10 2.7392800523022474e-10 9.042039903270323e-11 -2.90554006136521 0.9651829962377875 -0.10290200252939893 2.9527800033930103e-10 2.7393200577166004e-10 9.04228030847769e-11 -10.278599710243157 0.7318009818271524 -0.025912300303053633 2.952930085817042e-10 2.7393700023643325e-10 9.041429882821651e-11 -2.221669932038622 -0.7334870246959406 0.20891999872313852 -2.0321699793705798e-16 0.0 -3.882510030490358e-19 -44.035599032000796 -49.841700373713095 -31.541799926740545 -15.76919924626694 86.27550035007022 16.095999892389955 -3.9606000227873146 -23.42619989078266 -5.269930211205834 2.0321699793705798e-16 0.0 3.882510030490358e-19 65.16479947471899 -49.003499558769136 51.832700516771816 171.3750060496043 81.83819965387973 -171.75599400150762 7.057800101461549 -25.422800788960785 9.666010288868467
0.35649999626912177 56.90379738807678 1.1513699777424335 -290.1809966993419 -264.00399617694455 431.2530078923493 6.090229954108842 24.50740005337546 6.216209805141965 -0.5665569879374175 -12.882300265250574 2.1183099599892885 -2.831289928671648 11.774699713968381 6.110659903689996 4.788699841722477 -24.803799527502747 13.430800314095741 -0.0 0.0 0.0 -0.0 0.0 0.0 -1.7013100552607656e-13 -2.0159999427136437e-12 9.796739842922715e-15 47.924298934055855 4.484049925964636 -4.9842199831296154 -27.209199200337185 -27.05249929285146 62.62840189624559 -1.6545500404640605 -33.85810148939946 -5.4138200989032 -5.757370012789932e-10 3.259590073805212e-09 -3.855989995837835e-09 -8.968040074431888e-10 5.685390184047395e-09 -6.673339645174285e-09 -5.757350134323173e-10 3.259590073805212e-09 -3.855999935071215e-09 7.730910121524428 5.474879855648998 0.41731399283890674 -5.757379952023311e-10 3.259590073805212e-09 -3.855989995837835e-09 2.90554006136521 0.9651829962377875 0.10290200252939893 -5.757340195089793e-10 3.2596000130385918e-09 -3.855989995837835e-09 10.278599710243157 0.7318009818271524 0.025912300303053633 -5.757440084385258e-10 3.2596000130385918e-09 -3.855980056604456e-09 2.221669932038622 -0.7334870246959406 -0.20891999872313852 -1.7024300389439546e-13 -2.0168900088278107e-12 9.569229886966712e-15 10.10110016918745 73.12089751808416 -89.17120002983214 27.915099251058002 -30.1505006380927 -67.52090054967157 1.6730299710371763 -34.07540054274883 5.45573995804733 1.5981199922222447e-09 -5.275930196099303e-11 8.243350193298757e-10 2.7266400310364428e-09 -1.837259960029542e-10 1.4730599857930963e-09 1.5981099535965312e-09 -5.275530141955775e-11 8.243469961060981e-10 -7.730910121524428 5.474879855648998 -0.41731399283890674 1.5981199922222447e-09 -5.276209737038104e-11 8.243329817870329e-10 -2.90554006136521 0.9651829962377875 -0.10290200252939893 1.5981199922222447e-09 -5.276399824876488e-11 8.243380010998895e-10 -10.278599710243157 0.7318009818271524 -0.025912300303053633 1.598130030847958e-09 -5.275950074566062e-11 8.243280121703431e-10 -2.221669932038622 -0.7334870246959406 0.20891999872313852 -2.0321699793705798e-16 0.0 -3.882510030490358e-19 -43.94810089363835 -49.80930137138514 -31.40470095462546 -16.439599388776614 86.4115986994719 16.76000014764733 -4.020409854915001 -23.42869974001888 -5.3555500475465285 2.0321699793705798e-16 0.0 3.882510030490358e-19 64.41229704329118 -48.949998687000424 51.15200044899376 170.9750028510517 82.25199983455579 -171.3589960861898 6.9852199500200545 -25.049699998001547 9.660440269600322
